<?xml version="1.0" standalone="no"?>
<!DOCTYPE svg PUBLIC "-//W3C//DTD SVG 20010904//EN"
 "http://www.w3.org/TR/2001/REC-SVG-20010904/DTD/svg10.dtd">
<svg version="1.0" xmlns="http://www.w3.org/2000/svg"
 width="512.000000pt" height="512.000000pt" viewBox="0 0 512.000000 512.000000"
 preserveAspectRatio="xMidYMid meet">
<metadata>
Created by potrace 1.14, written by Peter Selinger 2001-2017
</metadata>
<g transform="translate(0.000000,512.000000) scale(0.100000,-0.100000)"
fill="#000000" stroke="none">
<path d="M1034 4947 c-148 -84 -282 -160 -299 -169 -16 -9 -73 -41 -125 -71
-52 -30 -120 -68 -150 -85 -30 -16 -146 -82 -258 -145 l-203 -115 68 -37 c37
-21 76 -44 85 -52 9 -8 22 -12 28 -8 6 3 9 1 8 -7 -2 -7 5 -12 14 -12 10 1 15
-2 13 -7 -3 -4 5 -13 17 -20 77 -41 319 -262 442 -404 14 -16 32 -37 39 -45
42 -45 177 -243 177 -259 0 -5 4 -11 8 -13 12 -5 104 -188 147 -292 103 -250
177 -553 209 -857 15 -138 19 -326 20 -931 1 -430 5 -670 11 -676 6 -5 30 -21
55 -34 25 -14 70 -38 100 -55 200 -111 331 -184 373 -207 26 -14 68 -38 95
-52 26 -15 85 -48 132 -74 47 -26 105 -59 130 -72 139 -77 176 -98 285 -159
66 -36 121 -66 122 -65 0 0 4 62 7 136 3 74 7 144 10 155 2 11 7 47 10 80 11
89 59 284 106 425 162 488 511 919 1045 1291 104 72 249 157 757 440 288 160
542 302 566 316 l42 24 0 745 c-1 410 -4 744 -8 742 -50 -23 -138 -72 -140
-79 -2 -5 -10 -9 -17 -9 -25 0 -84 -33 -78 -43 4 -6 1 -7 -6 -2 -7 4 -23 2
-34 -3 -73 -37 -344 -116 -467 -137 -19 -3 -42 -8 -50 -10 -8 -3 -31 -7 -50
-9 -19 -3 -55 -7 -80 -11 -151 -20 -207 -22 -410 -20 -124 2 -238 5 -255 8
-16 3 -50 8 -75 12 -376 46 -760 186 -1125 409 -59 36 -109 66 -110 66 -2 0
-58 34 -125 75 -67 41 -124 75 -126 75 -2 0 -28 16 -58 35 -30 19 -164 101
-298 181 -134 80 -257 154 -274 165 l-30 18 -270 -152z m21 -1147 c3 -6 -1 -7
-9 -4 -18 7 -21 14 -7 14 6 0 13 -4 16 -10z m710 -363 c264 -96 545 -146 809
-142 102 2 239 11 283 19 10 2 38 7 63 11 203 32 478 122 694 226 34 16 53 23
42 17 -89 -60 -208 -147 -241 -175 -244 -214 -430 -454 -574 -741 -117 -232
-194 -458 -236 -697 -7 -40 -15 -127 -19 -197 -2 -57 -12 -89 -12 -45 -1 42
-14 185 -19 199 -2 7 -6 27 -8 43 -10 62 -20 112 -34 165 -19 71 -62 209 -73
235 -5 11 -23 54 -40 95 -118 285 -326 589 -561 822 -85 84 -244 214 -327 267
-28 18 -52 34 -52 36 0 1 46 -21 103 -49 56 -29 147 -69 202 -89z"/>
</g>
</svg>
